<?xml version="1.0" standalone="no"?><svg xmlns="http://www.w3.org/2000/svg" viewBox="0 0 1440 320"><path fill="#5ba898" fill-opacity="1" d="M0,64L13.3,58.7C26.7,53,53,43,80,80C106.7,117,133,203,160,208C186.7,213,213,139,240,112C266.7,85,293,107,320,106.7C346.7,107,373,85,400,96C426.7,107,453,149,480,144C506.7,139,533,85,560,85.3C586.7,85,613,139,640,181.3C666.7,224,693,256,720,245.3C746.7,235,773,181,800,160C826.7,139,853,149,880,138.7C906.7,128,933,96,960,101.3C986.7,107,1013,149,1040,154.7C1066.7,160,1093,128,1120,144C1146.7,160,1173,224,1200,245.3C1226.7,267,1253,245,1280,229.3C1306.7,213,1333,203,1360,176C1386.7,149,1413,107,1427,85.3L1440,64L1440,320L1426.7,320C1413.3,320,1387,320,1360,320C1333.3,320,1307,320,1280,320C1253.3,320,1227,320,1200,320C1173.3,320,1147,320,1120,320C1093.3,320,1067,320,1040,320C1013.3,320,987,320,960,320C933.3,320,907,320,880,320C853.3,320,827,320,800,320C773.3,320,747,320,720,320C693.3,320,667,320,640,320C613.3,320,587,320,560,320C533.3,320,507,320,480,320C453.3,320,427,320,400,320C373.3,320,347,320,320,320C293.3,320,267,320,240,320C213.3,320,187,320,160,320C133.3,320,107,320,80,320C53.3,320,27,320,13,320L0,320Z"></path></svg>